<svg width="55" height="57" viewBox="0 0 55 57" fill="none" xmlns="http://www.w3.org/2000/svg">
<path d="M39.4441 26.1405H33.3354C32.4651 26.1405 31.7541 26.8533 31.7541 27.7263V29.8718C31.7541 30.7472 32.4627 31.4576 33.3354 31.4576L39.4441 31.46C40.3144 31.46 41.0254 30.7472 41.0254 29.8742V27.7287C41.023 26.8533 40.3144 26.1405 39.4441 26.1405ZM39.7889 29.8742C39.7889 30.0632 39.6319 30.2211 39.4417 30.2211H33.3354C33.1452 30.2211 32.9883 30.0632 32.9883 29.8742V27.7287C32.9883 27.5398 33.1428 27.3819 33.3354 27.3819L39.4441 27.3795C39.6344 27.3795 39.7913 27.5398 39.7913 27.7264L39.7889 29.8742ZM13.4183 51.5754C13.4183 51.2333 13.6942 50.9559 14.0366 50.9559H19.7245C20.0645 50.9559 20.3427 51.231 20.3427 51.5754C20.3427 51.9174 20.0669 52.1949 19.7245 52.1949H14.0366C13.6942 52.1949 13.4183 51.9174 13.4183 51.5754ZM45.315 17.0584C45.0201 16.1112 44.1617 15.4751 43.1749 15.4751H29.6019C28.6151 15.4751 27.7567 16.1113 27.4618 17.0584L26.2514 20.9739C26.2229 21.072 26.2158 21.1748 26.2348 21.2753C26.3894 22.1124 26.7817 22.8372 27.3358 23.3993V32.7775C27.3358 34.1744 28.4653 35.3105 29.8563 35.3105H42.9277C44.3116 35.3105 45.4435 32.7775 45.4435 32.7775L45.4411 23.3772C45.9952 22.8152 46.3923 22.0928 46.5492 21.2748C46.5659 21.1743 46.5611 21.0715 46.5326 20.9734L45.315 17.0584ZM33.9632 16.714H38.8189V22.0885C38.2767 22.8969 37.3826 23.3754 36.3911 23.3754C35.3995 23.3754 34.4983 22.897 33.9632 22.0885V16.714ZM27.4741 21.1868L28.6393 17.4268C28.7772 16.9939 29.1529 16.714 29.6023 16.714H32.7292V22.0861C31.9683 23.2414 30.7223 23.4902 29.7878 23.3251C28.8652 23.1624 27.7928 22.5143 27.4741 21.1868ZM44.2071 32.778C44.2071 33.4908 43.6293 34.072 42.9254 34.072L29.8564 34.0696C29.1478 34.0696 28.5699 33.4884 28.5699 32.7756V24.2393C28.8814 24.378 29.2215 24.4832 29.5734 24.5454C31.0049 24.799 32.4007 24.3158 33.3447 23.2969C34.1175 24.134 35.209 24.6124 36.3908 24.6124C37.5726 24.6124 38.664 24.1316 39.4368 23.2945C40.2096 24.1245 41.3177 24.6172 42.4758 24.6172C43.094 24.6172 43.6766 24.4832 44.2069 24.2393L44.2071 32.778ZM42.4759 23.3777C41.501 23.3777 40.5831 22.8873 40.0481 22.0884V16.714H43.175C43.6244 16.714 44.0049 16.9938 44.138 17.4268L45.3032 21.1867C44.9917 22.4664 43.8266 23.3777 42.4759 23.3777ZM36.3909 6.6755C35.4968 6.6755 34.6147 6.74008 33.7539 6.86446V6.77835C33.7539 3.04224 30.7316 0 27.0176 0H6.7436C3.0222 0 0 3.04003 0 6.77835V50.2216C0 53.9578 3.02226 57 6.7436 57H27.0176C30.7319 57 33.7539 53.96 33.7539 50.2216L33.7563 43.9215C34.6147 44.0435 35.4993 44.1105 36.3933 44.1105C46.6493 44.1105 55 35.7125 55 25.3944C55 15.0713 46.6463 6.6755 36.3909 6.6755ZM32.5269 50.2217C32.5269 53.2761 30.0515 55.7612 27.0173 55.7612L6.74329 55.7588C3.70435 55.7588 1.23373 53.2737 1.23373 50.2193V47.8729H32.5265L32.5269 50.2217ZM32.5269 46.6339H1.23409V6.77568C1.23409 3.72125 3.70234 1.2361 6.74366 1.2361H27.0177C30.0519 1.2361 32.5272 3.72125 32.5272 6.77568V7.08183C24.112 8.87574 17.7842 16.4031 17.7842 25.3913C17.7842 34.3802 24.112 41.9074 32.5272 43.7009L32.5269 46.6339ZM36.3909 42.8691C26.8106 42.8691 19.0109 35.0284 19.0109 25.3917C19.0109 15.7551 26.81 7.91434 36.3909 7.91434C45.9719 7.91434 53.7637 15.7551 53.7637 25.3917C53.7661 35.0308 45.9713 42.8691 36.3909 42.8691ZM19.7219 5.96717H14.034C13.6939 5.96717 13.4157 5.68972 13.4157 5.34769C13.4157 5.00566 13.6916 4.72821 14.034 4.72821H19.7219C20.0619 4.72821 20.3401 5.00566 20.3401 5.34769C20.3377 5.68973 20.0619 5.96717 19.7219 5.96717Z" fill="black"/>
<path d="M13.0026 51.8472C13.0026 51.5051 13.2784 51.2277 13.6209 51.2277H19.3088C19.6488 51.2277 19.927 51.5028 19.927 51.8472C19.927 52.1892 19.6512 52.4667 19.3088 52.4667H13.6209C13.2784 52.4667 13.0026 52.1892 13.0026 51.8472ZM19.3062 6.23896H13.6182C13.2782 6.23896 13 5.96151 13 5.61948C13 5.27745 13.2758 5 13.6182 5H19.3062C19.6462 5 19.9244 5.27745 19.9244 5.61948C19.922 5.96152 19.6462 6.23896 19.3062 6.23896Z" fill="#009FE1"/>
<path d="M39.2199 25.6655H33.1112C32.2409 25.6655 31.5299 26.3783 31.5299 27.2512V29.3967C31.5299 30.2722 32.2385 30.9825 33.1112 30.9825L39.2199 30.9849C40.0902 30.9849 40.8012 30.2721 40.8012 29.3991V27.2536C40.7988 26.3782 40.0902 25.6655 39.2199 25.6655ZM39.5647 29.3992C39.5647 29.5881 39.4077 29.746 39.2175 29.746H33.1113C32.921 29.746 32.7641 29.5882 32.7641 29.3992V27.2537C32.7641 27.0647 32.9187 26.9069 33.1113 26.9069L39.2199 26.9045C39.4102 26.9045 39.5671 27.0647 39.5671 27.2513L39.5647 29.3992ZM45.0908 16.5834C44.7959 15.6362 43.9375 15 42.9507 15H29.3777C28.3909 15 27.5325 15.6363 27.2376 16.5834L26.0273 20.4989C25.9987 20.5969 25.9916 20.6998 26.0106 20.8002C26.1652 21.6374 26.5575 22.3621 27.1116 22.9242V32.3025C27.1116 33.6993 28.2411 34.8355 29.6321 34.8355H42.7035C44.0874 34.8355 45.2193 32.3025 45.2193 32.3025L45.217 22.9022C45.771 22.3401 46.1681 21.6177 46.325 20.7997C46.3417 20.6993 46.3369 20.5964 46.3084 20.4984L45.0908 16.5834ZM33.7391 16.239H38.5947V21.6135C38.0526 22.4219 37.1585 22.9003 36.1669 22.9003C35.1753 22.9003 34.2741 22.4219 33.7391 21.6135V16.239ZM27.2499 20.7118L28.4151 16.9518C28.553 16.5188 28.9287 16.239 29.3781 16.239H32.505V21.6111C31.7441 22.7663 30.4981 23.0151 29.5636 22.85C28.641 22.6874 27.5686 22.0393 27.2499 20.7118ZM43.9829 32.3029C43.9829 33.0157 43.4051 33.5969 42.7012 33.5969L29.6322 33.5945C28.9236 33.5945 28.3458 33.0133 28.3458 32.3005V23.7642C28.6573 23.9029 28.9973 24.0082 29.3492 24.0704C30.7807 24.3239 32.1765 23.8408 33.1205 22.8218C33.8933 23.659 34.9848 24.1373 36.1666 24.1373C37.3484 24.1373 38.4398 23.6565 39.2126 22.8194C39.9854 23.6494 41.0935 24.1421 42.2516 24.1421C42.8698 24.1421 43.4524 24.0082 43.9827 23.7642L43.9829 32.3029ZM42.2518 22.9026C41.2768 22.9026 40.359 22.4123 39.8239 21.6134V16.2389H42.9508C43.4003 16.2389 43.7807 16.5187 43.9139 16.9517L45.079 20.7117C44.7675 21.9913 43.6024 22.9026 42.2518 22.9026Z" fill="#25D2A4"/>
</svg>
